<!DOCTYPE svg PUBLIC "-//W3C//DTD SVG 1.1//EN" "http://www.w3.org/Graphics/SVG/1.1/DTD/svg11.dtd">
<!-- Uploaded to: SVG Repo, www.svgrepo.com, Transformed by: SVG Repo Mixer Tools -->
<svg version="1.1" id="Capa_1" xmlns="http://www.w3.org/2000/svg" xmlns:xlink="http://www.w3.org/1999/xlink" viewBox="0 0 474.08 474.08" xml:space="preserve" width="800px" height="800px" fill="#000000">
<g id="SVGRepo_bgCarrier" stroke-width="0"/>
<g id="SVGRepo_tracerCarrier" stroke-linecap="round" stroke-linejoin="round"/>
<g id="SVGRepo_iconCarrier"> <g> <g id="XMLID_9_"> <g> <path style="fill:#ffffff;" d="M262.473,261.75c4.81,3.6,10.34,5.7,16,6.39c-7.23,6.82-18.51,7.51-26.52,1.51 c-6.39-4.77-10.38-12.05-10.95-20c-0.48-6.58,1.44-13.05,5.31-18.28c0.48,9.69,4.4,19.22,11.71,26.53 C259.423,259.3,260.923,260.6,262.473,261.75z"/> <path style="fill:#ffffff;" d="M230.363,352.83c1.27,1.27,1.97,2.96,1.97,4.76c0,1.8-0.7,3.49-1.97,4.76 c-1.27,1.27-2.96,1.97-4.76,1.97c-1.79,0-3.48-0.7-4.76-1.97c-2.62-2.63-2.62-6.9,0-9.52c1.28-1.27,2.97-1.97,4.76-1.97 C227.403,350.86,229.093,351.56,230.363,352.83z"/> <path style="fill:#ffffff;" d="M283.463,401.08c1.06,1.61,0.84,3.76-0.52,5.12l-28.56,28.56c-1.18,1.18-2.56,1.24-3.27,1.17 s-2.05-0.39-2.98-1.77l-80.77-119.61c-1.09-1.61-0.88-3.78,0.49-5.15l29.82-29.82c0.98-0.99,2.1-1.19,2.87-1.19 c0.15,0,0.3,0.01,0.42,0.02c0.72,0.07,2.06,0.41,2.99,1.81L283.463,401.08z M245.333,357.59c0-5.27-2.05-10.22-5.78-13.95 c-1.86-1.87-4.03-3.31-6.39-4.29c-2.37-0.98-4.92-1.49-7.56-1.49c-5.27,0-10.22,2.05-13.95,5.78c-7.69,7.69-7.69,20.21,0,27.9 c3.73,3.73,8.68,5.78,13.95,5.78c5.27,0,10.23-2.05,13.95-5.78C243.283,367.81,245.333,362.86,245.333,357.59z"/> <path style="fill:#ffffff;" d="M327.623,128.37l-29.51,29.51c-9.73,9.72-13.63,23.44-11.39,36.34 c-11.13-2.24-23.06,0.99-31.73,9.66l-15.23,15.22c-8.3,8.31-12.58,19.78-11.73,31.49c0.85,11.71,6.73,22.46,16.13,29.47 c4.81,3.61,10.36,5.71,16.04,6.4l-0.36,0.35c-11.1,11.1-12.91,28.69-4.32,41.82l48.4,73.92c1.3,1.99,1.03,4.67-0.66,6.35 l-50.44,50.45c-1.46,1.46-3.16,1.54-4.05,1.46c-0.88-0.08-2.54-0.47-3.71-2.18l-68.79-100.15c-10-14.57-26.48-22.73-43.4-22.73 c-6.79,0-13.66,1.31-20.19,4.06c-4.88,2.05-10.38,0.59-13.62-3.36l218.32-218.32L327.623,128.37z M292.133,415.39 c5.7-5.7,6.62-14.72,2.19-21.46l-79.51-120.85c-2.84-4.31-7.4-7.08-12.53-7.6c-5.13-0.52-10.16,1.26-13.8,4.91l-29.82,29.81 c-5.77,5.77-6.64,14.87-2.08,21.63l80.77,119.6c2.86,4.24,7.43,6.95,12.52,7.44c0.55,0.06,1.1,0.08,1.65,0.08 c4.5,0,8.83-1.77,12.05-5L292.133,415.39z"/> <polygon style="fill:#ffffff;" points="390.223,57.12 332.493,114.86 326.573,108.94 384.313,51.21 "/> <rect x="187.738" y="156.137" transform="matrix(0.7072 -0.707 0.707 0.7072 -48.9865 200.3261)" style="fill:#ffffff;" width="59.248" height="6.336"/> <path style="fill:#ffffff;" d="M404.013,52.53c2.54,2.54,2.54,6.65,0,9.19l-62.34,62.34c1.05,1.19,1.64,2.71,1.64,4.31 c0,1.72-0.68,3.37-1.9,4.59l-34.11,34.11c-9.87,9.87-11,25.74-2.62,36.91l6.67,8.89c9.97,13.3,8.63,32.19-3.13,43.95 l-39.18,39.19c-6.77,6.77-7.88,17.49-2.64,25.5l48.39,73.92c4.66,7.12,3.68,16.65-2.34,22.67l-50.44,50.44 c-3.41,3.41-7.99,5.29-12.76,5.29c-0.55,0-1.11-0.03-1.67-0.08c-5.36-0.49-10.18-3.32-13.23-7.76l-68.79-100.15 c-10.55-15.36-30.68-21.26-47.85-14.04c-5.87,2.46-12.17,2.51-17.77,0.55c-3.62,3.29-8.19,4.96-12.78,4.96 c-4.87,0-9.74-1.85-13.44-5.56c-3.59-3.59-5.57-8.36-5.56-13.43c0-5.08,1.98-9.85,5.57-13.44c0.83-0.84,1.73-1.57,2.68-2.23 l-1.34-2.44c-8.67-15.75-5.84-35.64,6.88-48.36l1.72-1.72l-4.04-4.04c-2.54-2.54-2.54-6.65,0-9.19c2.54-2.54,6.66-2.54,9.2,0 l4.03,4.04l228.44-228.43c-0.47-0.28-0.92-0.61-1.32-1.01c-2.54-2.54-2.54-6.66,0-9.19l12.24-12.24c2.53-2.54,6.65-2.54,9.19,0 c0.4,0.4,0.73,0.85,1.01,1.32l9.23-9.23c1.21-1.22,2.87-1.91,4.59-1.91s3.38,0.69,4.6,1.91l31.66,31.66 c2.19,2.19,2.49,5.57,0.89,8.08L404.013,52.53z M332.493,114.86l57.73-57.74l-5.91-5.91l-57.74,57.73L332.493,114.86z M157.633,259.5l221.08-221.08l-22.47-22.47l-110.98,110.98l9.07,9.07c1.22,1.22,1.91,2.88,1.91,4.6s-0.69,3.38-1.91,4.6 l-51.08,51.08c-1.27,1.27-2.93,1.9-4.6,1.9c-1.66,0-3.32-0.63-4.59-1.9l-9.08-9.08l-49.82,49.83L157.633,259.5z M298.113,157.88 l29.51-29.51l-10.24-10.24L99.063,336.45c3.24,3.95,8.74,5.41,13.62,3.36c6.53-2.75,13.4-4.06,20.19-4.06 c16.92,0,33.4,8.16,43.4,22.73l68.79,100.15c1.17,1.71,2.83,2.1,3.71,2.18c0.89,0.08,2.59,0,4.05-1.46l50.44-50.45 c1.69-1.68,1.96-4.36,0.66-6.35l-48.4-73.92c-8.59-13.13-6.78-30.72,4.32-41.82l0.36-0.35c-5.68-0.69-11.23-2.79-16.04-6.4 c-9.4-7.01-15.28-17.76-16.13-29.47c-0.85-11.71,3.43-23.18,11.73-31.49l15.23-15.22c8.67-8.67,20.6-11.9,31.73-9.66 C284.483,181.32,288.383,167.6,298.113,157.88z M299.033,247.62c7.26-7.25,8.07-18.74,1.92-26.95l-6.26-8.35 c-8.02-7.26-19.82-7.65-28.22-1.25c-0.51,0.39-0.97,0.85-1.37,1.36c-8.52,10.78-7.7,26.47,2.12,36.28 c0.95,0.95,1.97,1.84,3.03,2.63c3.67,2.75,8.03,4.1,12.37,4.1c5.33,0,10.63-2.04,14.6-6.01L299.033,247.62z M278.473,268.14 c-5.66-0.69-11.19-2.79-16-6.39c-1.55-1.15-3.05-2.45-4.45-3.85c-7.31-7.31-11.23-16.84-11.71-26.53 c-3.87,5.23-5.79,11.7-5.31,18.28c0.57,7.95,4.56,15.23,10.95,20C259.963,275.65,271.243,274.96,278.473,268.14z M198.653,182.49 l41.9-41.89l-4.48-4.48l-41.9,41.89L198.653,182.49z M144.493,272.64l3.95-3.95l-22.47-22.47l-3.95,3.95L144.493,272.64z M131.353,285.78l3.95-3.95l-22.47-22.47l-3.95,3.95L131.353,285.78z M118.213,298.92l3.94-3.95l-22.47-22.47l-3.94,3.95 L118.213,298.92z M92.393,324.73l16.62-16.62l-21.91-21.91c-5.05,8.32-5.46,18.97-0.64,27.75L92.393,324.73z M82.913,342.56 c1.54,1.54,3.7,2.04,5.68,1.56c-0.78-1-1.5-2.06-2.13-3.21l-3.68-6.68c-1.05,1.11-1.62,2.56-1.62,4.09 C81.163,339.92,81.783,341.43,82.913,342.56z"/> <path style="fill:#ffffff;" d="M378.713,38.42L157.633,259.5l-22.47-22.47l49.82-49.83l9.08,9.08c1.27,1.27,2.93,1.9,4.59,1.9 c1.67,0,3.33-0.63,4.6-1.9l51.08-51.08c1.22-1.22,1.91-2.88,1.91-4.6s-0.69-3.38-1.91-4.6l-9.07-9.07l110.98-110.98 L378.713,38.42z"/> <path style="fill:#ffffff;" d="M294.323,393.93c4.43,6.74,3.51,15.76-2.19,21.46l-28.56,28.56c-3.22,3.23-7.55,5-12.05,5 c-0.55,0-1.1-0.02-1.65-0.08c-5.09-0.49-9.66-3.2-12.52-7.44l-80.77-119.6c-4.56-6.76-3.69-15.86,2.08-21.63l29.82-29.81 c3.64-3.65,8.67-5.43,13.8-4.91c5.13,0.52,9.69,3.29,12.53,7.6L294.323,393.93z M282.943,406.2c1.36-1.36,1.58-3.51,0.52-5.12 l-79.51-120.86c-0.93-1.4-2.27-1.74-2.99-1.81c-0.12-0.01-0.27-0.02-0.42-0.02c-0.77,0-1.89,0.2-2.87,1.19l-29.82,29.82 c-1.37,1.37-1.58,3.54-0.49,5.15l80.77,119.61c0.93,1.38,2.27,1.7,2.98,1.77s2.09,0.01,3.27-1.17L282.943,406.2z"/> <path style="fill:#ffffff;" d="M239.553,343.64c3.73,3.73,5.78,8.68,5.78,13.95s-2.05,10.22-5.78,13.95 c-3.72,3.73-8.68,5.78-13.95,5.78c-5.27,0-10.22-2.05-13.95-5.78c-7.69-7.69-7.69-20.21,0-27.9c3.73-3.73,8.68-5.78,13.95-5.78 c2.64,0,5.19,0.51,7.56,1.49C235.523,340.33,237.693,341.77,239.553,343.64z M232.333,357.59c0-1.8-0.7-3.49-1.97-4.76 c-1.27-1.27-2.96-1.97-4.76-1.97c-1.79,0-3.48,0.7-4.76,1.97c-2.62,2.62-2.62,6.89,0,9.52c1.28,1.27,2.97,1.97,4.76,1.97 c1.8,0,3.49-0.7,4.76-1.97C231.633,361.08,232.333,359.39,232.333,357.59z"/> <rect x="132.439" y="243.541" transform="matrix(0.7071 -0.7071 0.7071 0.7071 -143.836 171.6091)" style="fill:#ffffff;" width="5.586" height="31.777"/> <rect x="119.299" y="256.681" transform="matrix(0.7071 -0.7071 0.7071 0.7071 -156.976 166.1664)" style="fill:#ffffff;" width="5.586" height="31.777"/> <polygon style="fill:#ffffff;" points="122.153,294.97 118.213,298.92 95.743,276.45 99.683,272.5 "/> <path style="fill:#ffffff;" d="M109.013,308.11l-16.62,16.62l-5.93-10.78c-4.82-8.78-4.41-19.43,0.64-27.75L109.013,308.11z"/> </g> <g> </g> </g> </g> </g>
</svg>